<?xml version="1.0" encoding="UTF-8"?>
<svg version="1.1" xmlns="http://www.w3.org/2000/svg" width="1024" height="1024">
<path d="M0 0 C337.92 0 675.84 0 1024 0 C1024 337.92 1024 675.84 1024 1024 C686.08 1024 348.16 1024 0 1024 C0 686.08 0 348.16 0 0 Z " fill="#121112" transform="translate(0,0)"/>
<path d="M0 0 C1.85431641 0.4957251 1.85431641 0.4957251 3.74609375 1.00146484 C7.94016427 2.1278874 12.12742419 3.27814929 16.3125 4.4375 C17.29822495 4.7093512 17.29822495 4.7093512 18.30386353 4.98669434 C28.73663651 7.88084084 38.75692202 11.38479601 49 15 C49 41.73 49 68.46 49 96 C43.72 93.36 38.44 90.72 33 88 C18.06661986 81.01414045 2.79850179 75.67757468 -13 71 C-13.82145508 70.75266113 -14.64291016 70.50532227 -15.48925781 70.25048828 C-25.69418599 67.21500965 -36.01739683 65.153397 -46.5 63.3125 C-47.65016602 63.10987549 -48.80033203 62.90725098 -49.98535156 62.69848633 C-66.82735353 59.86905833 -83.39861959 58.64707604 -100.47021484 58.68432617 C-103.4974337 58.68749731 -106.52368121 58.66386917 -109.55078125 58.63867188 C-128.53638221 58.57665989 -154.49278276 58.82929038 -169 73 C-173.79877849 78.2909609 -174.29717505 82.33407106 -174.21484375 89.27734375 C-173.83801827 94.05275034 -171.92357103 96.84553621 -169 100.5 C-158.21711502 109.48573748 -143.97932859 113.9981362 -130.64453125 117.76953125 C-129.74226303 118.02587845 -128.83999481 118.28222565 -127.91038513 118.54634094 C-117.35398969 121.51066661 -106.71646928 124.15104553 -96.0793457 126.80731201 C-15.60933111 146.94716068 -15.60933111 146.94716068 12 161 C12.9266748 161.45560303 12.9266748 161.45560303 13.87207031 161.92041016 C37.1682893 173.37863707 55.70534602 190.76263131 64.8203125 215.4296875 C74.17960103 243.75548127 71.83099997 274.24185389 59 301 C42.85303875 331.43218861 13.71024562 347.92277117 -18 358 C-22.60177127 359.38651561 -27.24318833 360.54485869 -31.94238281 361.55566406 C-33.37622563 361.86529789 -34.80774497 362.18580602 -36.23730469 362.51464844 C-58.85780705 367.71595314 -81.74011703 368.41851275 -104.875 368.375 C-106.07643646 368.3737915 -107.27787292 368.37258301 -108.51571655 368.37133789 C-128.31573875 368.31757134 -147.46507978 367.34867591 -167 364 C-167.81921936 363.86188904 -168.63843872 363.72377808 -169.48248291 363.58148193 C-190.97715198 359.94674045 -212.29986364 355.96801332 -233 349 C-233.90347168 348.70206543 -234.80694336 348.40413086 -235.73779297 348.09716797 C-245.46275632 344.87617196 -254.62758672 341.26018786 -264 337 C-264 307.96 -264 278.92 -264 249 C-259.68359349 250.72656261 -255.86562482 252.73823001 -251.875 255.0625 C-218.6826087 273.9398346 -182.5656291 284.12551666 -145 290 C-143.86240234 290.17966309 -142.72480469 290.35932617 -141.55273438 290.54443359 C-128.5842255 292.50415952 -115.71343385 293.16980051 -102.61376953 293.13037109 C-100.50155466 293.12500395 -98.38955232 293.1303611 -96.27734375 293.13671875 C-83.38210557 293.14581417 -70.85950276 292.5485527 -58.25 289.6875 C-57.29996094 289.48705078 -56.34992188 289.28660156 -55.37109375 289.08007812 C-44.97874693 286.78409452 -34.48531206 283.69755856 -27.6875 275.0625 C-24.29728266 268.90988335 -22.61442282 262.86346888 -24.58203125 255.95703125 C-29.65929359 243.97098271 -43.51315637 239.59590708 -54.63671875 234.8828125 C-70.68692479 228.62814284 -87.98763838 225.24255772 -104.734375 221.43359375 C-117.766761 218.46501769 -130.67137345 215.22138494 -143.44873047 211.28979492 C-147.59708116 210.01341029 -151.74529101 208.78244075 -155.94140625 207.671875 C-186.72729831 199.4642993 -216.7018353 187.22222814 -240 165 C-240.91845703 164.19369141 -240.91845703 164.19369141 -241.85546875 163.37109375 C-255.86474447 150.58001592 -264.23342689 130.07768163 -265.36987305 111.3762207 C-265.51500723 107.4756526 -265.51866207 103.58101177 -265.46655273 99.6784668 C-265.43737743 97.3025183 -265.4460538 94.92878939 -265.45898438 92.55273438 C-265.42366228 65.6606127 -255.63562184 44.66344061 -236.6640625 25.66015625 C-217.98345074 7.97705288 -192.75208185 -0.91515674 -168 -6 C-166.74832031 -6.26554687 -165.49664062 -6.53109375 -164.20703125 -6.8046875 C-111.25660717 -17.10797965 -52.13309718 -14.05864893 0 0 Z " fill="#FDFDFD" transform="translate(405,334)"/>
<path d="M0 0 C123.42 0 246.84 0 374 0 C374 25.41 374 50.82 374 77 C328.13 77 282.26 77 235 77 C235 170.39 235 263.78 235 360 C202.99 360 170.98 360 138 360 C138 266.61 138 173.22 138 77 C92.46 77 46.92 77 0 77 C0 51.59 0 26.18 0 0 Z " fill="#FEFEFD" transform="translate(478,331)"/>
<path d="M0 0 C30.36 0 60.72 0 92 0 C92 34.32 92 68.64 92 104 C61.64 104 31.28 104 0 104 C0 69.68 0 35.36 0 0 Z " fill="#DDF534" transform="translate(810,587)"/>
<path d="M0 0 C30.36 0 60.72 0 92 0 C92 34.32 92 68.64 92 104 C61.64 104 31.28 104 0 104 C0 69.68 0 35.36 0 0 Z M2 2 C2 35 2 68 2 102 C31.37 102 60.74 102 91 102 C91 69 91 36 91 2 C61.63 2 32.26 2 2 2 Z " fill="#D6E73A" transform="translate(810,587)"/>
</svg>
